<?xml version="1.0" encoding="utf-8"?>
<svg width="29px" height="22px" viewBox="0 0 29 22" version="1.1" xmlns:xlink="http://www.w3.org/1999/xlink" xmlns="http://www.w3.org/2000/svg">
  <g id="编组">
    <path d="M3 0C1.34315 0 0 1.34315 0 3C0 4.65685 1.34315 6 3 6C4.65685 6 6 4.65685 6 3C6 1.34315 4.65685 0 3 0Z" transform="translate(20 16)" id="路径" fill="#F9BF00" stroke="none" />
    <path d="M28.1462 10.0367L25.6535 5.58804C25.1444 4.97257 24.7997 4.47043 23.981 4.47043L20.0768 4.47043L20.0768 1.11761C20.0774 0.502143 19.5757 0 18.9613 0L1.11549 0C0.501093 0 0 0.502143 0 1.11761L0 17.8824C0 18.4979 0.501093 19 1.11549 19L3.33972 19C3.61286 17.0749 5.25305 15.5841 7.25 15.5841C9.24628 15.5841 10.8871 17.0749 11.1603 19L18.9552 18.9986C19.2297 17.0735 20.8699 15.5841 22.8655 15.5841C24.8618 15.5841 26.502 17.0749 26.7758 19L27.8845 19C28.4982 19 29 18.4979 29 17.8824L29 12.2944C29 11.2358 28.1462 10.0367 28.1462 10.0367L28.1462 10.0367ZM21.1923 12.2944L21.1923 6.70564L23.921 6.70564C24.1003 6.70564 24.3499 6.97029 24.3499 6.97029L26.6982 11.3444C26.9059 11.6511 27.1319 12.0148 27.1319 12.2944L21.1923 12.2944L21.1923 12.2944Z" transform="matrix(1 0 0 1 1.8189894E-12 0)" id="形状" fill="#333333" stroke="none" />
    <path d="M3 0C1.3431 0 -2.92709e-10 1.34292 0 3C0 4.65708 1.3431 6 3 6C4.65617 6 6 4.65708 6 3C6 1.34292 4.65617 0 3 2.89693e-10L3 0Z" transform="translate(4 16)" id="路径" fill="#F9BF00" stroke="none" />
  </g>
</svg>