<?xml version="1.0" encoding="utf-8"?>
<svg width="12px" height="12px" viewBox="0 0 12 12" version="1.1" xmlns:xlink="http://www.w3.org/1999/xlink" xmlns="http://www.w3.org/2000/svg">
  <g id="编组">
    <path d="M9.36563 10.3475C9.36563 10.7606 9.0375 11.0969 8.63475 11.0969L3.36563 11.0969C2.96202 11.0962 2.63499 10.7611 2.63438 10.3475L2.63438 2.39231L9.36563 2.39231L9.36563 10.3475L9.36563 10.3475ZM4.09688 1.04724C4.09688 0.960769 4.1625 0.893515 4.24688 0.893515L7.7625 0.893515C7.84688 0.893515 7.91213 0.960769 7.91213 1.04724L7.91213 1.4988L4.09688 1.4988L4.09688 1.04724ZM11.5594 1.4988L8.78437 1.4988L8.78437 1.04724C8.78437 0.470777 8.325 0 7.7625 0L4.24687 0C3.68302 0.00126814 3.22624 0.46939 3.225 1.04724L3.225 1.4988L0.440625 1.4988C0.196875 1.4988 0 1.70056 0 1.95036C0 2.20016 0.196875 2.40192 0.440625 2.40192L1.75313 2.40192L1.75313 10.3475C1.75313 11.2601 2.47507 12 3.36563 12L8.63437 12C9.52493 12 10.2469 11.2601 10.2469 10.3475L10.2469 2.39231L11.5594 2.39231C11.8031 2.39231 12 2.19055 12 1.94075C12 1.69095 11.8031 1.4988 11.5594 1.4988ZM6 9.74219C6.24375 9.74219 6.44062 9.54043 6.44062 9.29063L6.44062 4.48679C6.44062 4.23699 6.24412 4.03523 6 4.03523C5.75625 4.03523 5.55937 4.23699 5.55937 4.48679L5.55937 9.29063C5.55937 9.54043 5.75625 9.74219 6 9.74219M3.94687 9.74219C4.19063 9.74219 4.3875 9.54043 4.3875 9.29063L4.3875 4.48679C4.3875 4.23699 4.19063 4.03523 3.94687 4.03523C3.70313 4.03523 3.50625 4.23699 3.50625 4.48679L3.50625 9.29063C3.51563 9.54043 3.7125 9.74219 3.94687 9.74219M8.05313 9.74219C8.29688 9.74219 8.49413 9.54043 8.49413 9.29063L8.49413 4.48679C8.49413 4.23699 8.29725 4.03523 8.05313 4.03523C7.80975 4.03523 7.6125 4.23699 7.6125 4.48679L7.6125 9.29063C7.6125 9.54043 7.80938 9.74219 8.05313 9.74219" id="形状" fill="#999999" stroke="none" />
  </g>
</svg>