<?xml version="1.0" encoding="utf-8"?>
<svg width="10px" height="12px" viewBox="0 0 10 12" version="1.1" xmlns:xlink="http://www.w3.org/1999/xlink" xmlns="http://www.w3.org/2000/svg">
  <g id="编组">
    <path d="M6.85887 0.663048L5.78339 1.79674L1.0712 1.79674L1.0712 10.8663L8.56957 10.8663L8.56957 4.25233L9.64077 3.1158L9.64077 10.8663C9.64077 11.4924 9.16118 12 8.56957 12L1.0712 12C0.479591 12 8.17621e-17 11.4924 0 10.8663L0 1.79674C-1.63524e-16 1.17062 0.479591 0.663048 1.0712 0.663048L6.85887 0.663048ZM2.67799 4.63098L4.28479 4.63098C4.47616 4.63095 4.653 4.73899 4.74869 4.91438C4.84439 5.08978 4.84439 5.30588 4.74869 5.48128C4.653 5.65667 4.47616 5.76471 4.28479 5.76468L2.67799 5.76468C2.48662 5.76471 2.30978 5.65667 2.21408 5.48128C2.11839 5.30588 2.11839 5.08978 2.21408 4.91438C2.30978 4.73899 2.48662 4.63095 2.67799 4.63098L2.67799 4.63098ZM2.67799 7.46522L6.96278 7.46522C7.25855 7.46527 7.4983 7.71904 7.4983 8.03207C7.4983 8.3451 7.25855 8.59887 6.96278 8.59892L2.67799 8.59892C2.48662 8.59894 2.30978 8.49091 2.21408 8.31551C2.11839 8.14012 2.11839 7.92401 2.21408 7.74862C2.30978 7.57322 2.48662 7.46519 2.67799 7.46522ZM5.6827 3.76654L9.09232 0.159121C9.30247 -0.0556986 9.63653 -0.0526263 9.84313 0.166026C10.0497 0.384678 10.0526 0.738224 9.84965 0.960643L6.4411 4.56806C6.23095 4.78288 5.89689 4.77981 5.69029 4.56116C5.48369 4.3425 5.48079 3.98896 5.68377 3.76654L5.6827 3.76654Z" id="形状" fill="#999999" stroke="none" />
  </g>
</svg>