<?xml version="1.0" encoding="utf-8"?>
<svg width="23px" height="23px" viewBox="0 0 23 23" version="1.1" xmlns:xlink="http://www.w3.org/1999/xlink" xmlns="http://www.w3.org/2000/svg">
  <g id="编组">
    <path d="M20.3339 23L2.66612 23C1.19601 23 0 21.804 0 20.3339L0 2.66612C0 1.19601 1.19601 0 2.66612 0L20.3339 0C21.804 0 23 1.19601 23 2.66612L23 20.3339C23 21.804 21.804 23 20.3339 23ZM2.66612 1.86281C2.22318 1.86281 1.86281 2.22318 1.86281 2.66612L1.86281 20.3339C1.86281 20.7768 2.22318 21.1372 2.66612 21.1372L20.3339 21.1372C20.7768 21.1372 21.1372 20.7768 21.1372 20.3339L21.1372 2.66612C21.1372 2.22318 20.7768 1.86281 20.3339 1.86281L2.66612 1.86281Z" id="形状" fill="#333333" stroke="none" />
    <path d="M3.53178 0.952846C3.53178 1.44539 3.13571 1.84472 2.64712 1.84472L0.884661 1.84472C0.396096 1.84472 0 1.44542 0 0.952846C0 0.4603 0.396068 0.0609763 0.884661 0.0609763L2.64712 0.0609763C3.13571 0.0610046 3.53178 0.4603 3.53178 0.952846ZM3.53178 6.41936C3.53178 6.9119 3.13571 7.31123 2.64712 7.31123L0.884661 7.31123C0.396096 7.31123 0 6.91193 0 6.41936C0 5.92681 0.396068 5.52749 0.884661 5.52749L2.64712 5.52749C3.13571 5.52751 3.53178 5.92681 3.53178 6.41936ZM3.53178 12.1082C3.53178 12.6007 3.13571 13 2.64712 13L0.884661 13C0.396096 13 0 12.6007 0 12.1082C0 11.6156 0.396068 11.2163 0.884661 11.2163L2.64712 11.2163C3.13571 11.2163 3.53178 11.6156 3.53178 12.1082ZM15 0.911383C15 1.41473 14.5952 1.82277 14.096 1.82277L6.24501 1.82277C5.74573 1.82277 5.341 1.41473 5.341 0.911383C5.341 0.408031 5.74573 0 6.24501 0L14.096 0C14.5952 0 15 0.408031 15 0.911383ZM15 6.45299C15 6.95634 14.5952 7.36437 14.096 7.36437L6.24501 7.36437C5.74573 7.36437 5.341 6.95634 5.341 6.45299C5.341 5.94964 5.74573 5.54161 6.24501 5.54161L14.096 5.54161C14.5952 5.54161 15 5.94967 15 6.45299ZM15 12.0798C15 12.5831 14.5952 12.9912 14.096 12.9912L6.24501 12.9912C5.74573 12.9912 5.341 12.5831 5.341 12.0798C5.341 11.5764 5.74573 11.1684 6.24501 11.1684L14.096 11.1684C14.5952 11.1684 15 11.5764 15 12.0798Z" transform="translate(4 5)" id="形状" fill="#F9BF00" stroke="none" />
  </g>
</svg>