<?xml version="1.0" encoding="utf-8"?>
<svg width="23px" height="23px" viewBox="0 0 23 23" version="1.1" xmlns:xlink="http://www.w3.org/1999/xlink" xmlns="http://www.w3.org/2000/svg">
  <g id="编组">
    <path d="M16.0989 0.47517L18.2223 2.59558C18.8409 3.21328 18.8409 4.18588 18.2223 4.71598L17.1606 5.77619L12.826 1.44553L13.8877 0.385322C14.5063 -0.142534 15.4803 -0.142534 16.0989 0.47517L16.0989 0.47517ZM11.7643 2.59558L16.0989 6.92399L5.30631 17.6114L0.971736 13.283L11.7643 2.59558L11.7643 2.59558ZM1.50015e-15 14.433L4.33457 18.7614L0 18.7614L0 14.433L1.50015e-15 14.433Z" id="形状" fill="#333333" stroke="none" />
    <path d="M1.41487 0L21.5851 0C22.3814 0 23 0.617703 23 1.41286C23 2.20801 22.3814 2.82571 21.5851 2.82571L1.41487 2.82571C0.618582 2.82571 0 2.20801 0 1.41286C0 0.617703 0.618582 2.24883e-08 1.41487 0Z" transform="translate(6.000599E-17 20.174288)" id="路径" fill="#F9BF00" stroke="none" />
    <path d="M1.4226 0L7.17204 0C7.96832 0 8.5869 0.617703 8.5869 1.41286C8.5869 2.20801 7.96832 2.82571 7.17204 2.82571L1.4226 2.82571C0.626318 2.82571 0.00773571 2.20801 0.00773571 1.41286C-0.0822398 0.617703 0.626318 0 1.4226 0Z" transform="translate(14.410846 14.433018)" id="路径" fill="#F9BF00" stroke="none" />
  </g>
</svg>