<?xml version="1.0" encoding="utf-8"?>
<svg width="19px" height="23px" viewBox="0 0 19 23" version="1.1" xmlns:xlink="http://www.w3.org/1999/xlink" xmlns="http://www.w3.org/2000/svg">
  <g id="编组">
    <path d="M17.4016 2.14751L14.0168 2.14751C13.8443 1.4166 13.2065 0.899777 12.4705 0.894555L10.7928 0.894555C10.5759 0.353472 10.0604 -9.41506e-17 9.48804 0C8.9157 9.41506e-17 8.40015 0.353472 8.18331 0.894555L6.47806 0.894555C5.74207 0.899777 5.10425 1.4166 4.93174 2.14751L1.54688 2.14751C1.12816 2.15122 0.728475 2.32669 0.437674 2.63446C0.146874 2.94223 -0.0106351 3.35648 0.000558315 3.78408L0.000558315 21.3634C-0.0137296 22.2511 0.67795 22.9832 1.54688 23L17.3754 23C18.2634 22.999 18.9866 22.2705 18.9999 21.3634L18.9999 3.78081C19.0037 3.34657 18.8365 2.92897 18.536 2.62184C18.2355 2.31472 17.8267 2.14381 17.4016 2.14751L17.4016 2.14751Z" transform="matrix(1 0 0 1 1.8189894E-12 0)" id="形状" fill="#333333" fill-rule="evenodd" stroke="none" />
    <path d="M1.28166 0.000654614C1.9895 0.000654614 2.56332 0.586828 2.56332 1.30991C2.56332 2.03299 1.9895 2.61916 1.28166 2.61916C0.573819 2.61916 1.60513e-07 2.03299 1.60513e-07 1.30991C-0.000169837 0.962673 0.134699 0.62959 0.374936 0.383934C0.615174 0.138279 0.941101 0.000173571 1.28102 0L1.28166 0.000654614Z" transform="translate(8.232015 2.9369912)" id="路径" fill="#F9BF00" stroke="none" />
    <path d="M9.75279 1.14494C9.75 1.47493 9.48882 1.74174 9.16579 1.74458L0.587 1.74458C0.263969 1.74174 0.00278489 1.47493 0 1.14494L0 0.599638C0.00278489 0.269653 0.263969 0.00284485 0.587 0L9.16515 0C9.48818 0.00284485 9.74936 0.269653 9.75215 0.599638L9.75279 1.14494Z" transform="translate(4.636961 15.320571)" id="路径" fill="#F9BF00" stroke="none" />
    <path d="M9.75279 1.14494C9.75 1.47493 9.48882 1.74174 9.16579 1.74458L0.587 1.74458C0.263969 1.74174 0.00278489 1.47493 0 1.14494L0 0.599638C0.00278489 0.269653 0.263969 0.00284485 0.587 0L9.16515 0C9.48818 0.00284485 9.74936 0.269653 9.75215 0.599638L9.75279 1.14494Z" transform="translate(4.636961 9.7942095)" id="路径" fill="#F9BF00" stroke="none" />
  </g>
</svg>