<?xml version="1.0" encoding="utf-8"?>
<svg width="20px" height="20px" viewBox="0 0 20 20" version="1.1" xmlns:xlink="http://www.w3.org/1999/xlink" xmlns="http://www.w3.org/2000/svg">
  <defs>
    <linearGradient x1="0" y1="0.5" x2="1" y2="0.5" id="gradient_1">
      <stop offset="0" stop-color="#FCD46A" />
      <stop offset="1" stop-color="#FAC321" />
    </linearGradient>
  </defs>
  <g id="编组-5">
    <path d="M10 20C15.5228 20 20 15.5228 20 10C20 4.47715 15.5228 0 10 0C4.47715 0 0 4.47715 0 10C0 15.5228 4.47715 20 10 20Z" id="椭圆形" fill="url(#gradient_1)" fill-rule="evenodd" stroke="none" />
    <g id="编组" transform="translate(5 6)">
      <path d="M3.35518 7.13C3.48357 7.13 3.60521 7.15333 3.72009 7.2C3.83497 7.24667 3.93633 7.31167 4.02418 7.395C4.11203 7.47833 4.17961 7.57667 4.22691 7.69C4.27422 7.80333 4.29787 7.92333 4.29787 8.05C4.29787 8.17667 4.27422 8.29667 4.22691 8.41C4.17961 8.52333 4.11203 8.62167 4.02418 8.705C3.93633 8.78833 3.83497 8.855 3.72009 8.905C3.60521 8.955 3.48357 8.98 3.35518 8.98C3.22002 8.98 3.09669 8.955 2.98519 8.905C2.87369 8.855 2.77402 8.78833 2.68617 8.705C2.59832 8.62167 2.53074 8.52333 2.48344 8.41C2.43613 8.29667 2.41248 8.17667 2.41248 8.05C2.41248 7.92333 2.43613 7.80333 2.48344 7.69C2.53074 7.57667 2.59832 7.47833 2.68617 7.395C2.77402 7.31167 2.87369 7.24667 2.98519 7.2C3.09669 7.15333 3.22002 7.13 3.35518 7.13L3.35518 7.13ZM7.57195 7.15C7.70035 7.15 7.82367 7.17333 7.94193 7.22C8.06019 7.26667 8.16156 7.33167 8.24603 7.415C8.3305 7.49833 8.39807 7.59667 8.44876 7.71C8.49944 7.82333 8.52478 7.94333 8.52478 8.07C8.52478 8.19667 8.49944 8.31667 8.44876 8.43C8.39807 8.54333 8.3305 8.64167 8.24603 8.725C8.16156 8.80833 8.06019 8.875 7.94193 8.925C7.82367 8.975 7.70035 9 7.57195 9C7.44356 9 7.32192 8.975 7.20704 8.925C7.09216 8.875 6.99248 8.80833 6.90801 8.725C6.82354 8.64167 6.75596 8.54333 6.70528 8.43C6.6546 8.31667 6.62926 8.19667 6.62926 8.07C6.62926 7.94333 6.6546 7.82333 6.70528 7.71C6.75596 7.59667 6.82354 7.49833 6.90801 7.415C6.99248 7.33167 7.09216 7.26667 7.20704 7.22C7.32192 7.17333 7.44356 7.15 7.57195 7.15ZM9.27488 1.47C9.46409 1.47 9.61107 1.495 9.71582 1.545C9.82056 1.595 9.89489 1.65667 9.93882 1.73C9.98274 1.80333 10.003 1.88167 9.99964 1.965C9.99626 2.04833 9.98443 2.12 9.96416 2.18C9.94389 2.24 9.90165 2.36333 9.83745 2.55C9.77326 2.73667 9.70061 2.94167 9.61952 3.165C9.53843 3.38833 9.45903 3.61 9.38131 3.83C9.3036 4.05 9.24447 4.22333 9.20392 4.35C9.11608 4.61667 9.00457 4.80167 8.86942 4.905C8.73427 5.00833 8.5687 5.06 8.37273 5.06L8.02809 5.06L7.36922 5.06L6.50762 5.06L5.56493 5.06L3.05108 5.06L3.20313 5.96L8.31191 5.96C8.63628 5.96 8.79846 6.09667 8.79846 6.37C8.79846 6.50333 8.76637 6.61833 8.70217 6.715C8.63797 6.81167 8.51126 6.86 8.32205 6.86L7.8355 6.86L6.89281 6.86L5.72711 6.86L4.54114 6.86L3.56804 6.86L3.01053 6.86C2.87538 6.86 2.76219 6.83 2.67096 6.77C2.57973 6.71 2.50371 6.63167 2.44289 6.535C2.38207 6.43833 2.33308 6.33333 2.29591 6.22C2.25875 6.10667 2.23003 6 2.20975 5.9C2.203 5.86 2.18441 5.76333 2.154 5.61C2.12359 5.45667 2.08643 5.265 2.0425 5.035C1.99858 4.805 1.94958 4.54833 1.89552 4.265C1.84146 3.98167 1.7874 3.69667 1.73334 3.41C1.60494 2.73667 1.45965 1.98667 1.29747 1.16L0.537233 1.16C0.435869 1.16 0.351398 1.135 0.283821 1.085C0.216245 1.035 0.160494 0.975 0.11657 0.905C0.0726448 0.835 0.0422353 0.76 0.0253412 0.68C0.00844707 0.6 0 0.526667 0 0.46C0 0.326667 0.0456142 0.216667 0.136842 0.13C0.228071 0.0433333 0.351398 0 0.506824 0L0.729827 0L0.932556 0L1.18597 0L1.53061 0C1.66576 0 1.77388 0.02 1.85498 0.06C1.93607 0.1 2.00027 0.15 2.04757 0.21C2.09487 0.27 2.12866 0.333333 2.14893 0.4C2.16921 0.466667 2.1861 0.523333 2.19962 0.57C2.21313 0.623333 2.22665 0.698333 2.24016 0.795C2.25368 0.891667 2.26719 0.99 2.28071 1.09C2.30098 1.21 2.32125 1.33667 2.34153 1.47L9.27488 1.47L9.27488 1.47Z" transform="matrix(1 0 0 1 -9.094947E-12 0)" id="形状" fill="#FFFFFF" stroke="none" />
    </g>
  </g>
</svg>